# xmcd CD database file
#
# Track frame offsets:
#	150
#	21088
#	40061
#	58162
#	77109
#	97870
#	122777
#	133038
#	154588
#	175234
#
# Disc length: 2604 seconds
#
# Revision: 4
# Processed by: cddbd v1.5.2PL0 Copyright (c) Steve Scherf et al.
# Submitted via: CDex 1.70beta2
#
DISCID=790a2a0a
DTITLE=Graveworm - (N)Utopia
DYEAR=2005
DGENRE=Sympho Black Metal
TTITLE0=I - The Machine
TTITLE1=(N)Utopia
TTITLE2=Hateful Design
TTITLE3=Never Enough
TTITLE4=Timeless
TTITLE5=Which Way
TTITLE6=Deep Inside
TTITLE7=Outside Down
TTITLE8=MCMXCII
TTITLE9=Losing My Religion (R.E.M. cover) (Bonustrack)
EXTD=Lagerplatz: [T5|10]\r\nCover auf Cover_CD 06 YEAR: 2005
EXTT0=
EXTT1=
EXTT2=
EXTT3=
EXTT4=
EXTT5=
EXTT6=
EXTT7=
EXTT8=
EXTT9=
PLAYORDER=
